<?xml version="1.0" encoding="utf-8"?>
<!-- Generator: Adobe Illustrator 19.0.0, SVG Export Plug-In . SVG Version: 6.00 Build 0)  -->
<svg version="1.1" id="Layer_1" xmlns="http://www.w3.org/2000/svg" xmlns:xlink="http://www.w3.org/1999/xlink" x="0px" y="0px"
	 viewBox="0 0 70 122.2" style="enable-background:new 0 0 70 122.2;" xml:space="preserve">
<style type="text/css">
	.st0{fill:#222222;stroke:#FFFFFF;stroke-miterlimit:10;}
	.st1{fill:#3FA8B2;}
	.st2{fill:#FFFFFF;}
</style>
<path id="XMLID_1_" class="st0" d="M69,35.6c0,18.8-28.7,38.3-34,82.2C29.7,73.9,1,54.4,1,35.6s15.2-34,34-34S69,16.8,69,35.6z"/>
<g id="XMLID_62_">
	<circle id="XMLID_68_" class="st1" cx="35" cy="35.1" r="28.5"/>
	<path id="XMLID_63_" class="st2" d="M44.9,46.1c-1.2-0.8-1.7-1.4-4.3-1.4c-1.8,0-3.5,1.3-5.3,1.3c-1.8,0-3.5-1.3-5.3-1.3
		c-2,0-3.5,1-4.3,1.5c-1.1,0.7-1.7-0.6-0.8-1.2c0,0,1.7-1.6,5.2-1.6c1.9,0,3.3,1.3,5.2,1.3c2,0,3.3-1.3,5.3-1.3
		c3.3,0,5.3,1.6,5.3,1.6C46.7,45.7,45.8,46.8,44.9,46.1z M35,34.5c-0.1-2.5-2.5-10.7-2.5-10.7s5.9,4.1,8.4,7.1
		c2.5,3.1,4.8,7.1,4.8,7.1h-2.4c0,0-2.8-6.1-8.3-10.7c1.7,5.2,1.2,10.7,1.2,10.7H35C35,38.1,35.1,37.1,35,34.5z M32.6,28.5
		c0,0-0.7,4.8-2.2,7.2c-1.5,2.4-5,3.4-5,3.4h2.4c0,0,4.2-0.4,4.2-4.6c0,3,0,4.6,0,4.6h1.8L32.6,28.5z M20.7,41.5
		c0.4,2.5,2.3,3.2,2.3,3.2l0.9-0.8c0,0-0.9-0.6-1.1-1.6l24.8-2.1c0,0,0.4,1.7-1.7,2.1l0.7,0.9c2.7,0,2.7-4.4,2.7-4.4L20.7,41.5z"/>
</g>
</svg>
