<?xml version="1.0" encoding="utf-8"?>
<!-- Generator: Adobe Illustrator 21.1.0, SVG Export Plug-In . SVG Version: 6.00 Build 0)  -->
<svg version="1.1" id="Слой_1" xmlns="http://www.w3.org/2000/svg" xmlns:xlink="http://www.w3.org/1999/xlink" x="0px" y="0px"
	 viewBox="0 0 108 108" style="enable-background:new 0 0 108 108;" xml:space="preserve">
<style type="text/css">
	.st0{fill:#3FA8B2;}
	.st1{fill:#FFFFFF;}
</style>
<circle class="st0" cx="54" cy="54" r="54"/>
<g>
	<path class="st1" d="M46.8,37h20.9c3.4,0,6.1,2.8,6.1,6.1c0,3.4-2.7,6.1-6.1,6.1H46.8c-1.6,1.7-3.9,2.7-6.4,2.7
		c-4.9,0-8.9-4-8.9-8.9c0-4.9,4-8.9,8.9-8.9C42.9,34.2,45.1,35.3,46.8,37z M49.2,43.1c0,1.7-0.5,3.4-1.4,4.8h19.8
		c2.6,0,4.8-2.1,4.8-4.8c0-2.6-2.1-4.8-4.8-4.8H47.8C48.7,39.7,49.2,41.4,49.2,43.1z M32.9,43.1c0,4.1,3.4,7.5,7.5,7.5
		c4.1,0,7.5-3.4,7.5-7.5c0-4.1-3.4-7.5-7.5-7.5C36.2,35.6,32.9,38.9,32.9,43.1z M61.2,58.8c1.6-1.7,3.9-2.7,6.4-2.7
		c4.9,0,8.9,4,8.9,8.9c0,4.9-4,8.9-8.9,8.9c-2.5,0-4.8-1-6.4-2.7H40.4c-3.4,0-6.1-2.8-6.1-6.1c0-3.4,2.7-6.1,6.1-6.1H61.2z
		 M60.1,64.9c0,4.1,3.4,7.5,7.5,7.5c4.1,0,7.5-3.4,7.5-7.5c0-4.1-3.4-7.5-7.5-7.5C63.5,57.4,60.1,60.8,60.1,64.9z M58.8,64.9
		c0-1.7,0.5-3.4,1.4-4.8H40.4c-2.6,0-4.8,2.1-4.8,4.8c0,2.6,2.1,4.8,4.8,4.8h19.8C59.3,68.3,58.8,66.6,58.8,64.9z"/>
	<path class="st1" d="M67.6,74c-2.5,0-4.8-1-6.5-2.7H40.4c-3.5,0-6.4-2.9-6.4-6.4c0-3.5,2.9-6.4,6.4-6.4h20.8c1.7-1.8,4-2.7,6.5-2.7
		c5,0,9.1,4.1,9.1,9.1C76.7,69.9,72.6,74,67.6,74z M40.4,59c-3.3,0-5.9,2.7-5.9,5.9c0,3.3,2.7,5.9,5.9,5.9h21l0.1,0.1
		c1.6,1.7,3.9,2.7,6.2,2.7c4.8,0,8.6-3.9,8.6-8.6s-3.9-8.6-8.6-8.6c-2.4,0-4.6,0.9-6.2,2.7L61.3,59H40.4z M67.6,72.6
		c-4.3,0-7.7-3.5-7.7-7.7s3.5-7.7,7.7-7.7s7.7,3.5,7.7,7.7S71.9,72.6,67.6,72.6z M67.6,57.6c-4,0-7.3,3.3-7.3,7.3
		c0,4,3.3,7.3,7.3,7.3s7.3-3.3,7.3-7.3C74.9,60.9,71.6,57.6,67.6,57.6z M60.6,69.9H40.4c-2.8,0-5-2.2-5-5c0-2.8,2.2-5,5-5h20.2
		l-0.2,0.3c-0.9,1.4-1.4,3-1.4,4.7c0,1.7,0.5,3.3,1.4,4.7L60.6,69.9z M40.4,60.4c-2.5,0-4.5,2-4.5,4.5c0,2.5,2,4.5,4.5,4.5h19.4
		c-0.8-1.4-1.2-2.9-1.2-4.5c0-1.6,0.4-3.2,1.2-4.5H40.4z M40.4,52.2c-5,0-9.1-4.1-9.1-9.1s4.1-9.1,9.1-9.1c2.5,0,4.8,1,6.5,2.7h20.8
		c3.5,0,6.4,2.9,6.4,6.4c0,3.5-2.9,6.4-6.4,6.4H46.9C45.1,51.2,42.8,52.2,40.4,52.2z M40.4,34.5c-4.8,0-8.6,3.9-8.6,8.6
		s3.9,8.6,8.6,8.6c2.4,0,4.6-0.9,6.2-2.7l0.1-0.1h21c3.3,0,5.9-2.7,5.9-5.9c0-3.3-2.7-5.9-5.9-5.9h-21l-0.1-0.1
		C45,35.4,42.7,34.5,40.4,34.5z M40.4,50.8c-4.3,0-7.7-3.5-7.7-7.7s3.5-7.7,7.7-7.7s7.7,3.5,7.7,7.7S44.6,50.8,40.4,50.8z
		 M40.4,35.8c-4,0-7.3,3.3-7.3,7.3s3.3,7.3,7.3,7.3s7.3-3.3,7.3-7.3S44.4,35.8,40.4,35.8z M67.6,48.1H47.4l0.2-0.3
		c0.9-1.4,1.4-3,1.4-4.7c0-1.7-0.5-3.3-1.4-4.7l-0.2-0.3h20.2c2.8,0,5,2.2,5,5C72.6,45.8,70.4,48.1,67.6,48.1z M48.2,47.6h19.4
		c2.5,0,4.6-2,4.6-4.5c0-2.5-2-4.5-4.6-4.5H48.2c0.8,1.4,1.2,2.9,1.2,4.5C49.5,44.7,49,46.3,48.2,47.6z"/>
</g>
</svg>
