<?xml version="1.0" encoding="utf-8"?>
<!-- Generator: Adobe Illustrator 19.0.0, SVG Export Plug-In . SVG Version: 6.00 Build 0)  -->
<svg version="1.1" id="Слой_1" xmlns="http://www.w3.org/2000/svg" xmlns:xlink="http://www.w3.org/1999/xlink" x="0px" y="0px"
	 viewBox="-237 360.9 120 120" style="enable-background:new -237 360.9 120 120;" xml:space="preserve">
<style type="text/css">
	.st0{fill:#222222;}
	.st1{fill:#3FA8B2;}
	.st2{fill:#FFFFFF;}
</style>
<g>
	<path class="st0" d="M-143,396.8c0,18.8-28.7,38.3-34,82.3c-5.3-43.9-34-63.5-34-82.3s15.2-34,34-34S-143,378-143,396.8z"/>
	<g>
		<circle class="st1" cx="-177" cy="396.2" r="28.5"/>
		<path class="st2" d="M-167,407.2c-1.2-0.8-1.7-1.4-4.3-1.4c-1.8,0-3.5,1.3-5.3,1.3c-1.8,0-3.5-1.3-5.3-1.3c-2,0-3.5,1-4.3,1.5
			c-1.1,0.7-1.7-0.6-0.8-1.2c0,0,1.7-1.6,5.2-1.6c1.9,0,3.3,1.3,5.2,1.3c2,0,3.3-1.3,5.3-1.3c3.3,0,5.3,1.6,5.3,1.6
			C-165.2,406.9-166.2,407.9-167,407.2z M-177,395.5c-0.1-2.5-2.5-10.6-2.5-10.6s5.9,3.9,8.4,7c2.5,3.1,4.8,7,4.8,7h-2.4
			c0,0-2.8-6.1-8.3-10.7c1.7,5.2,1.2,10.7,1.2,10.7h-1.2C-177,398.9-176.9,398.1-177,395.5z M-179.4,389.5c0,0-0.7,4.7-2.2,7.1
			c-1.5,2.4-5,3.3-5,3.3h2.4c0,0,4.1,0,4.1-4.2c0,3,0,4.2,0,4.2h1.8L-179.4,389.5z M-191.3,402.6c0.4,2.5,2.3,3.2,2.3,3.2l0.9-0.8
			c0,0-0.9-0.6-1.1-1.6l24.8-2.1c0,0,0.4,1.7-1.7,2.1l0.7,0.9c2.7,0,2.7-4.4,2.7-4.4L-191.3,402.6z"/>
	</g>
</g>
</svg>
